<svg version="1.1" id="Layer_1" xmlns="http://www.w3.org/2000/svg" xmlns:xlink="http://www.w3.org/1999/xlink" x="0px" y="0px"
	 width="100%" viewBox="0 0 1052 514" enable-background="new 0 0 1052 514" xml:space="preserve">
<path fill="#FFFEFF" opacity="1.000000" stroke="none" 
	d="
M801.000000,515.000000 
	C534.000000,515.000000 267.500000,515.000000 1.000000,515.000000 
	C1.000000,343.666656 1.000000,172.333328 1.000000,1.000000 
	C351.666656,1.000000 702.333313,1.000000 1053.000000,1.000000 
	C1053.000000,172.333328 1053.000000,343.666656 1053.000000,515.000000 
	C969.166687,515.000000 885.333313,515.000000 801.000000,515.000000 
M708.727295,320.224731 
	C702.767029,325.038605 696.709534,329.738037 690.874695,334.699371 
	C685.325439,339.417877 684.025940,346.027039 687.041748,352.279175 
	C689.837463,358.075073 696.031372,361.156555 702.778320,360.262604 
	C708.716980,359.475708 714.672607,358.813599 720.625732,358.139862 
	C753.707336,354.395844 786.797485,350.726685 819.871277,346.915131 
	C868.159668,341.350281 916.434998,335.673218 964.720032,330.079102 
	C971.738647,329.265961 976.744934,326.202118 979.427246,319.251953 
	C999.120972,268.223572 1018.867493,217.214981 1038.829102,166.291000 
	C1041.936646,158.363480 1040.953857,152.061615 1035.280151,145.698044 
	C1020.090820,128.661331 1005.234314,111.327881 990.249084,94.109230 
	C967.278625,67.715118 944.305542,41.323277 921.347961,14.917950 
	C917.565979,10.568010 913.200562,7.499239 907.084778,8.178065 
	C901.130981,8.838909 895.188110,9.597896 889.236572,10.279481 
	C861.287781,13.480213 833.336304,16.657345 805.388428,19.865747 
	C780.084961,22.770576 754.787354,25.726694 729.481567,28.611191 
	C723.033386,29.346189 718.968384,32.734837 716.624878,38.782387 
	C696.676880,90.259293 676.677368,141.716339 656.594727,193.140869 
	C653.740356,200.449951 654.829712,206.546341 660.067749,212.461273 
	C677.189331,231.795364 694.104736,251.312271 711.067261,270.786865 
	C719.122986,280.035553 727.105652,289.347778 735.371277,298.920593 
	C726.409302,306.093597 717.849854,312.944336 708.727295,320.224731 
M708.272400,425.500549 
	C711.938171,448.263519 715.603882,471.026489 719.270691,493.795990 
	C725.441589,493.795990 731.217773,493.795990 737.348328,493.795990 
	C741.268066,470.549774 745.164734,447.440063 749.061401,424.330353 
	C749.488037,424.378723 749.914673,424.427063 750.341309,424.475433 
	C750.341309,447.554626 750.341309,470.633820 750.341309,493.637695 
	C756.216125,493.637695 761.614258,493.637695 766.912109,493.637695 
	C766.912109,453.335541 766.912109,413.398834 766.912109,373.230164 
	C759.272156,373.230164 751.838013,373.230164 743.960999,373.230164 
	C738.913269,403.159943 733.859009,433.128265 728.804688,463.096588 
	C728.555481,463.092072 728.306213,463.087524 728.056946,463.083008 
	C722.967102,433.140747 717.877197,403.198486 712.789490,373.268738 
	C705.004211,373.268738 697.583862,373.268738 690.132690,373.268738 
	C690.132690,413.587524 690.132690,453.634094 690.132690,493.765869 
	C695.848694,493.765869 701.266846,493.765869 707.124084,493.765869 
	C707.124084,469.804718 707.124084,446.075562 707.124084,422.346405 
	C707.318420,422.340576 707.512756,422.334717 707.707031,422.328888 
	C707.837646,423.130798 707.968323,423.932739 708.272400,425.500549 
M225.500000,329.001160 
	C153.751953,329.001160 82.003899,329.001160 10.326857,329.001160 
	C10.326857,333.000183 10.326857,336.397797 10.326857,339.701965 
	C217.349350,339.701965 424.046112,339.701965 630.673218,339.701965 
	C630.673218,335.999878 630.673218,332.602234 630.673218,329.001160 
	C495.731781,329.001160 361.115875,329.001160 225.500000,329.001160 
M145.837677,215.499969 
	C145.837677,242.583511 145.837677,269.667053 145.837677,296.750183 
	C152.102448,296.750183 157.696304,296.750183 163.848419,296.750183 
	C163.848419,270.525543 163.848419,244.547180 163.848419,218.568817 
	C164.166336,218.516754 164.484238,218.464706 164.802155,218.412643 
	C175.585876,244.603561 186.369614,270.794464 197.046387,296.725616 
	C205.935883,296.725616 214.373184,296.725616 222.805756,296.725616 
	C222.805756,256.389801 222.805756,216.331757 222.805756,176.292023 
	C216.746994,176.292023 211.006699,176.292023 204.764801,176.292023 
	C204.764801,206.019028 204.764801,235.454391 204.764801,264.889740 
	C204.554398,264.903656 204.344009,264.917572 204.133606,264.931488 
	C192.314529,235.336334 180.495438,205.741196 168.732773,176.287292 
	C160.976761,176.287292 153.547501,176.287292 145.837646,176.287292 
	C145.837646,189.216736 145.837646,201.858353 145.837677,215.499969 
M632.118103,235.500015 
	C632.108215,226.012054 632.766663,216.459930 631.864197,207.057648 
	C631.213440,200.278610 629.316223,193.316635 626.470764,187.127853 
	C622.957825,179.487366 616.099854,175.827911 607.387146,175.963409 
	C597.402100,176.118713 587.411804,176.091064 577.425842,175.970657 
	C569.350586,175.873291 563.374451,179.428925 559.081665,186.030090 
	C554.781372,192.642746 553.077881,200.079437 553.029175,207.840073 
	C552.909058,226.981857 552.886169,246.125763 553.059998,265.266663 
	C553.095764,269.204865 553.786499,273.233795 554.813477,277.049103 
	C558.684021,291.427216 566.161621,297.000519 581.014221,297.000580 
	C588.005432,297.000610 594.996643,297.000610 601.987854,297.000610 
	C602.653687,297.000610 603.319519,297.000610 603.985352,297.000610 
	C619.498291,297.000549 628.723083,290.265930 630.773438,274.824860 
	C632.448120,262.212769 631.759094,249.286819 632.118103,235.500015 
M11.794410,233.499954 
	C11.794410,254.578781 11.794410,275.657593 11.794410,296.623657 
	C36.681847,296.623657 60.897583,296.623657 85.023926,296.623657 
	C85.023926,291.635712 85.023926,287.026154 85.023926,281.846863 
	C68.248306,281.846863 51.703632,281.846863 35.242859,281.846863 
	C35.242859,268.990295 35.242859,256.714874 35.242859,243.823334 
	C47.480522,243.823334 59.512688,243.823334 71.474258,243.823334 
	C71.474258,238.599792 71.474258,234.000107 71.474258,228.984283 
	C59.293022,228.984283 47.374077,228.984283 35.274364,228.984283 
	C35.274364,216.164566 35.274364,203.771027 35.274364,190.804794 
	C52.054283,190.804794 68.590179,190.804794 85.017212,190.804794 
	C85.017212,185.620865 85.017212,181.013153 85.017212,176.291428 
	C60.537983,176.291428 36.306313,176.291428 11.794374,176.291428 
	C11.794374,195.220551 11.794374,213.860245 11.794410,233.499954 
M555.794434,413.499969 
	C555.794434,440.244598 555.794434,466.989197 555.794434,493.625336 
	C580.679871,493.625336 604.896301,493.625336 629.025269,493.625336 
	C629.025269,488.638672 629.025269,484.029205 629.025269,478.849091 
	C612.250916,478.849091 595.706055,478.849091 579.241577,478.849091 
	C579.241577,465.992737 579.241577,453.717346 579.241577,440.825867 
	C591.478149,440.825867 603.510437,440.825867 615.475342,440.825867 
	C615.475342,435.604401 615.475342,431.004669 615.475342,425.986816 
	C603.295105,425.986816 591.375793,425.986816 579.273132,425.986816 
	C579.273132,413.167053 579.273132,400.773499 579.273132,387.807678 
	C596.052490,387.807678 612.588989,387.807678 629.018555,387.807678 
	C629.018555,382.623840 629.018555,378.015778 629.018555,373.290375 
	C604.540649,373.290375 580.308960,373.290375 555.794373,373.290375 
	C555.794373,386.552063 555.794373,399.526001 555.794434,413.499969 
M66.494919,388.001556 
	C71.310486,388.001556 76.126053,388.001556 81.202065,388.001556 
	C81.202065,382.948792 81.202065,378.188599 81.202065,372.998444 
	C65.734695,372.998444 50.446644,373.209991 35.168076,372.920746 
	C25.683315,372.741211 19.306362,377.105804 15.057257,385.070526 
	C9.585710,395.326721 8.640259,406.392578 10.587674,417.605225 
	C13.676828,435.391510 21.912052,442.025055 39.941868,442.026062 
	C41.441010,442.026154 42.942780,442.084534 44.438889,442.017181 
	C62.730389,441.193848 66.495995,446.487030 64.896957,465.298828 
	C64.868797,465.630157 64.826294,465.961731 64.766449,466.288757 
	C63.038116,475.733215 59.140202,478.997894 49.594742,478.998260 
	C37.823746,478.998749 26.052752,478.998413 14.237715,478.998413 
	C14.237715,484.255096 14.237715,488.981750 14.237715,494.001556 
	C29.823818,494.001556 45.127800,493.717651 60.414906,494.103119 
	C70.311531,494.352692 77.082809,490.018738 81.355270,481.625854 
	C88.520599,467.550201 89.267609,452.813843 83.801590,438.106140 
	C80.079460,428.090820 72.378609,422.874695 61.415146,422.988007 
	C55.585785,423.048248 49.748703,422.826569 43.927277,423.049713 
	C38.844822,423.244537 35.681381,420.857544 33.927738,416.405548 
	C31.062992,409.132843 31.098244,401.770172 33.975361,394.511963 
	C35.740337,390.059387 38.924370,387.762726 44.011589,387.939026 
	C51.165550,388.186981 58.334530,388.001617 66.494919,388.001556 
M316.476929,478.998413 
	C306.380859,478.998413 296.284821,478.998413 286.282043,478.998413 
	C286.282043,484.339172 286.282043,489.066650 286.282043,494.001556 
	C301.924286,494.001556 317.238525,493.732117 332.537506,494.099365 
	C342.212830,494.331635 348.918274,490.135376 353.171051,481.953308 
	C360.548950,467.758728 361.319977,452.861725 355.757660,437.990997 
	C352.014923,427.984741 344.248932,422.833679 333.290955,422.984802 
	C327.628510,423.062897 321.964020,423.018127 316.300629,422.992554 
	C310.367462,422.965759 306.636505,421.115906 305.671448,415.355072 
	C304.604309,408.984772 304.574341,402.164886 305.629425,395.795349 
	C306.615479,389.842407 310.342651,388.012329 316.634399,388.005463 
	C328.758392,387.992249 340.882416,388.001617 353.208405,388.001617 
	C353.208405,382.834717 353.208405,378.074860 353.208405,372.998444 
	C337.815155,372.998444 322.670898,373.245483 307.539520,372.910645 
	C297.630798,372.691376 291.081299,377.216095 286.768616,385.627808 
	C281.549988,395.806396 280.684021,406.699646 282.615479,417.731659 
	C285.695312,435.322662 293.932373,442.016724 311.572662,442.031189 
	C315.902740,442.034729 320.250305,441.867798 324.558838,442.191772 
	C331.805511,442.736694 335.985474,446.100006 336.715179,452.477509 
	C337.240082,457.065582 337.315247,461.848969 336.632355,466.401428 
	C335.210632,475.879547 331.113647,478.997711 321.463104,478.998383 
	C320.130524,478.998474 318.797913,478.998413 316.476929,478.998413 
M866.498169,494.001556 
	C869.829651,494.001556 873.174255,493.809937 876.490112,494.037537 
	C886.394592,494.717438 893.146362,489.947296 897.393677,481.562042 
	C904.527039,467.479156 905.278687,452.734314 899.776733,438.035889 
	C896.031128,428.029663 888.300354,422.850739 877.340271,422.985840 
	C871.511230,423.057709 865.674377,422.832611 859.852356,423.047699 
	C854.755066,423.236053 851.683472,420.763580 849.889893,416.340088 
	C847.148010,409.577972 847.232788,402.652527 849.415649,395.816681 
	C851.284119,389.965393 854.331482,388.012970 860.583740,388.005707 
	C872.715881,387.991638 884.848022,388.001617 897.220825,388.001617 
	C897.220825,382.880463 897.220825,378.120697 897.220825,372.998444 
	C882.016724,372.998444 867.044067,373.321106 852.093018,372.890381 
	C841.268494,372.578583 834.281494,377.595245 830.137939,386.922852 
	C824.572632,399.450897 824.133972,412.447021 828.578064,425.379303 
	C832.404785,436.515228 840.327759,441.873596 852.019958,442.018677 
	C855.184326,442.057922 858.349609,442.025543 861.514465,442.026062 
	C878.404907,442.028717 882.344055,446.337433 881.037415,463.380890 
	C880.143494,475.041809 875.958923,478.998322 864.519775,478.998383 
	C853.088074,478.998444 841.656372,478.998413 830.265137,478.998413 
	C830.265137,484.307190 830.265137,489.034149 830.265137,494.001556 
	C842.221130,494.001556 853.860107,494.001556 866.498169,494.001556 
M468.115845,268.490082 
	C468.115845,242.748718 468.115845,217.007355 468.115845,190.836090 
	C476.846405,190.836090 484.938538,190.836090 492.905334,190.836090 
	C492.905334,185.673508 492.905334,180.954773 492.905334,176.324768 
	C468.314575,176.324768 444.082855,176.324768 419.863647,176.324768 
	C419.863647,181.269852 419.863647,185.889786 419.863647,191.053375 
	C428.268097,191.053375 436.489471,191.053375 444.671387,191.053375 
	C444.671387,221.646408 444.671387,251.690918 444.671387,282.105103 
	C436.271454,282.105103 428.172516,282.105103 419.949829,282.105103 
	C419.949829,287.196838 419.949829,291.914154 419.949829,296.733368 
	C444.462189,296.733368 468.693085,296.733368 492.949615,296.733368 
	C492.949615,291.744598 492.949615,287.025208 492.949615,281.850525 
	C484.571838,281.850525 476.497894,281.850525 468.115845,281.850525 
	C468.115845,277.421051 468.115845,273.453430 468.115845,268.490082 
M199.979187,380.430023 
	C195.033905,397.171295 190.088623,413.912567 184.766922,431.928101 
	C183.875366,429.020477 183.426834,427.597626 183.002502,426.167633 
	C178.086548,409.600891 173.222046,393.018372 168.172562,376.492432 
	C167.756836,375.131836 166.131088,373.199127 164.999985,373.151947 
	C157.728149,372.848541 150.437454,372.996918 142.651337,372.996918 
	C143.352600,375.050385 143.824432,376.606171 144.409210,378.118256 
	C153.098953,400.587646 161.895447,423.016541 170.411728,445.551361 
	C171.781418,449.175659 172.440704,453.254883 172.525696,457.143555 
	C172.790848,469.275024 172.622955,481.415985 172.622955,493.753052 
	C180.414352,493.753052 187.811081,493.753052 195.671204,493.753052 
	C195.671204,481.217651 195.525436,468.925537 195.762497,456.640808 
	C195.831131,453.083496 196.468491,449.342346 197.748993,446.035492 
	C204.887848,427.599487 212.311707,409.273895 219.621689,390.904053 
	C221.933533,385.094421 224.194763,379.264618 226.602753,373.129089 
	C218.183975,373.129089 210.377777,373.129089 202.322754,373.129089 
	C201.609528,375.290955 200.892639,377.463928 199.979187,380.430023 
M287.941101,281.364319 
	C292.400818,292.287933 300.102295,297.655914 312.318756,297.128815 
	C325.446564,296.562408 338.617737,297.008514 351.769958,296.989838 
	C353.189148,296.987823 354.608124,296.833069 355.888855,296.757324 
	C355.888855,291.635590 355.888855,287.025513 355.888855,281.998779 
	C343.552490,281.998779 331.437927,281.846466 319.330383,282.070953 
	C314.222504,282.165649 311.028778,279.837036 309.289276,275.475647 
	C308.138184,272.589508 307.125824,269.410583 307.096985,266.352875 
	C306.908630,246.377213 306.798798,226.395798 307.090973,206.422531 
	C307.254425,195.249619 312.056122,191.001083 323.074097,191.000961 
	C334.001709,191.000854 344.929321,191.000931 355.786499,191.000931 
	C355.786499,185.682327 355.786499,180.959793 355.786499,175.999100 
	C340.159515,175.999100 324.861694,176.132996 309.567719,175.946579 
	C301.025909,175.842468 294.220398,179.305435 290.797516,186.737213 
	C287.817993,193.206482 285.470154,200.533279 285.195343,207.572937 
	C284.442657,226.855804 284.740692,246.190109 285.053284,265.497070 
	C285.135101,270.549286 286.786774,275.576050 287.941101,281.364319 
M445.842743,419.499969 
	C445.842743,444.243744 445.842743,468.987549 445.842743,493.670929 
	C453.737518,493.670929 460.979370,493.670929 468.713989,493.670929 
	C468.713989,458.296387 468.713989,423.247864 468.713989,387.848877 
	C477.164459,387.848877 485.116882,387.848877 493.099060,387.848877 
	C493.099060,382.766754 493.099060,378.046204 493.099060,373.257019 
	C468.532898,373.257019 444.281464,373.257019 419.978027,373.257019 
	C419.978027,378.235992 419.978027,382.955505 419.978027,388.137848 
	C428.687866,388.137848 437.098114,388.137848 445.842712,388.137848 
	C445.842712,398.570892 445.842712,408.535431 445.842743,419.499969 
z"/>
<path fill="#42297C" opacity="1.000000" stroke="none" 
	d="
M709.008911,320.009888 
	C717.849854,312.944336 726.409302,306.093597 735.371277,298.920593 
	C727.105652,289.347778 719.122986,280.035553 711.067261,270.786865 
	C694.104736,251.312271 677.189331,231.795364 660.067749,212.461273 
	C654.829712,206.546341 653.740356,200.449951 656.594727,193.140869 
	C676.677368,141.716339 696.676880,90.259293 716.624878,38.782387 
	C718.968384,32.734837 723.033386,29.346189 729.481567,28.611191 
	C754.787354,25.726694 780.084961,22.770576 805.388428,19.865747 
	C833.336304,16.657345 861.287781,13.480213 889.236572,10.279481 
	C895.188110,9.597896 901.130981,8.838909 907.084778,8.178065 
	C913.200562,7.499239 917.565979,10.568010 921.347961,14.917950 
	C944.305542,41.323277 967.278625,67.715118 990.249084,94.109230 
	C1005.234314,111.327881 1020.090820,128.661331 1035.280151,145.698044 
	C1040.953857,152.061615 1041.936646,158.363480 1038.829102,166.291000 
	C1018.867493,217.214981 999.120972,268.223572 979.427246,319.251953 
	C976.744934,326.202118 971.738647,329.265961 964.720032,330.079102 
	C916.434998,335.673218 868.159668,341.350281 819.871277,346.915131 
	C786.797485,350.726685 753.707336,354.395844 720.625732,358.139862 
	C714.672607,358.813599 708.716980,359.475708 702.778320,360.262604 
	C696.031372,361.156555 689.837463,358.075073 687.041748,352.279175 
	C684.025940,346.027039 685.325439,339.417877 690.874695,334.699371 
	C696.709534,329.738037 702.767029,325.038605 709.008911,320.009888 
M770.822021,141.686508 
	C787.218201,160.400726 803.614380,179.114944 820.783997,198.711945 
	C825.325195,187.025223 829.158142,176.443527 833.579590,166.113724 
	C835.518127,161.584686 834.659241,158.598160 831.517273,155.072144 
	C816.680298,138.421448 802.075439,121.563690 787.413330,104.757568 
	C783.412903,100.172142 779.501099,95.509460 775.148865,90.414261 
	C776.961914,89.828049 777.983521,89.304070 779.050903,89.182747 
	C789.128479,88.037300 799.216797,86.986206 809.296448,85.858177 
	C826.967468,83.880554 844.630676,81.832504 862.306580,79.900002 
	C865.814575,79.516464 867.812866,78.050980 869.070007,74.520195 
	C872.525635,64.814049 876.470825,55.282715 880.173889,45.663601 
	C880.673645,44.365482 880.895813,42.960484 881.332703,41.272007 
	C878.880249,41.272007 877.058899,41.098289 875.280457,41.300903 
	C865.542664,42.410343 855.821777,43.669151 846.083252,44.771835 
	C812.221619,48.605980 778.350159,52.353748 744.505920,56.334530 
	C742.848389,56.529480 740.661072,58.303635 739.999939,59.879295 
	C736.207703,68.916924 732.958069,78.181786 729.185181,87.228142 
	C727.775574,90.608086 728.131958,92.971642 730.551636,95.701279 
	C743.910583,110.771645 757.117493,125.976875 770.822021,141.686508 
M988.709839,136.784134 
	C964.740845,109.387924 940.771851,81.991714 916.426208,54.164928 
	C915.638855,55.734650 915.143799,56.556351 914.797852,57.436672 
	C910.784851,67.647316 906.893738,77.907478 902.739014,88.059860 
	C901.451416,91.206169 901.827881,93.338615 904.141663,95.958694 
	C922.329163,116.553688 940.343140,137.301956 958.398193,158.013809 
	C959.540710,159.324387 960.579895,160.725067 961.872314,162.340225 
	C960.876282,162.707779 960.461670,162.957657 960.023926,163.008453 
	C934.074646,166.020676 908.136963,169.140381 882.166626,171.959167 
	C870.019958,173.277557 869.953857,172.998001 865.666443,183.921173 
	C862.101990,193.002243 858.638916,202.123093 854.958008,211.674911 
	C856.414307,211.674911 857.221558,211.754669 858.008850,211.663361 
	C883.294556,208.730621 908.577515,205.773804 933.862732,202.836990 
	C952.869324,200.629425 971.867371,198.338699 990.895752,196.337143 
	C994.767029,195.929932 996.622742,194.367050 997.900024,190.759171 
	C1000.948792,182.147217 1004.305908,173.634674 1007.847778,165.212036 
	C1009.180969,162.041550 1008.949646,159.896301 1006.550110,157.295013 
	C1000.568726,150.810791 994.939392,144.001770 988.709839,136.784134 
z"/>
<path fill="#3A226B" opacity="1.000000" stroke="none" 
	d="
M708.185669,425.117615 
	C707.968323,423.932739 707.837646,423.130798 707.707031,422.328888 
	C707.512756,422.334717 707.318420,422.340576 707.124084,422.346405 
	C707.124084,446.075562 707.124084,469.804718 707.124084,493.765869 
	C701.266846,493.765869 695.848694,493.765869 690.132690,493.765869 
	C690.132690,453.634094 690.132690,413.587524 690.132690,373.268738 
	C697.583862,373.268738 705.004211,373.268738 712.789490,373.268738 
	C717.877197,403.198486 722.967102,433.140747 728.056946,463.083008 
	C728.306213,463.087524 728.555481,463.092072 728.804688,463.096588 
	C733.859009,433.128265 738.913269,403.159943 743.960999,373.230164 
	C751.838013,373.230164 759.272156,373.230164 766.912109,373.230164 
	C766.912109,413.398834 766.912109,453.335541 766.912109,493.637695 
	C761.614258,493.637695 756.216125,493.637695 750.341309,493.637695 
	C750.341309,470.633820 750.341309,447.554626 750.341309,424.475433 
	C749.914673,424.427063 749.488037,424.378723 749.061401,424.330353 
	C745.164734,447.440063 741.268066,470.549774 737.348328,493.795990 
	C731.217773,493.795990 725.441589,493.795990 719.270691,493.795990 
	C715.603882,471.026489 711.938171,448.263519 708.185669,425.117615 
z"/>
<path fill="#38206A" opacity="1.000000" stroke="none" 
	d="
M226.000000,329.001160 
	C361.115875,329.001160 495.731781,329.001160 630.673218,329.001160 
	C630.673218,332.602234 630.673218,335.999878 630.673218,339.701965 
	C424.046112,339.701965 217.349350,339.701965 10.326857,339.701965 
	C10.326857,336.397797 10.326857,333.000183 10.326857,329.001160 
	C82.003899,329.001160 153.751953,329.001160 226.000000,329.001160 
z"/>
<path fill="#3A226B" opacity="1.000000" stroke="none" 
	d="
M145.837662,214.999969 
	C145.837646,201.858353 145.837646,189.216736 145.837646,176.287292 
	C153.547501,176.287292 160.976761,176.287292 168.732773,176.287292 
	C180.495438,205.741196 192.314529,235.336334 204.133606,264.931488 
	C204.344009,264.917572 204.554398,264.903656 204.764801,264.889740 
	C204.764801,235.454391 204.764801,206.019028 204.764801,176.292023 
	C211.006699,176.292023 216.746994,176.292023 222.805756,176.292023 
	C222.805756,216.331757 222.805756,256.389801 222.805756,296.725616 
	C214.373184,296.725616 205.935883,296.725616 197.046387,296.725616 
	C186.369614,270.794464 175.585876,244.603561 164.802155,218.412643 
	C164.484238,218.464706 164.166336,218.516754 163.848419,218.568817 
	C163.848419,244.547180 163.848419,270.525543 163.848419,296.750183 
	C157.696304,296.750183 152.102448,296.750183 145.837677,296.750183 
	C145.837677,269.667053 145.837677,242.583511 145.837662,214.999969 
z"/>
<path fill="#39216A" opacity="1.000000" stroke="none" 
	d="
M632.118103,236.000031 
	C631.759094,249.286819 632.448120,262.212769 630.773438,274.824860 
	C628.723083,290.265930 619.498291,297.000549 603.985352,297.000610 
	C603.319519,297.000610 602.653687,297.000610 601.987854,297.000610 
	C594.996643,297.000610 588.005432,297.000610 581.014221,297.000580 
	C566.161621,297.000519 558.684021,291.427216 554.813477,277.049103 
	C553.786499,273.233795 553.095764,269.204865 553.059998,265.266663 
	C552.886169,246.125763 552.909058,226.981857 553.029175,207.840073 
	C553.077881,200.079437 554.781372,192.642746 559.081665,186.030090 
	C563.374451,179.428925 569.350586,175.873291 577.425842,175.970657 
	C587.411804,176.091064 597.402100,176.118713 607.387146,175.963409 
	C616.099854,175.827911 622.957825,179.487366 626.470764,187.127853 
	C629.316223,193.316635 631.213440,200.278610 631.864197,207.057648 
	C632.766663,216.459930 632.108215,226.012054 632.118103,236.000031 
M575.079529,259.439819 
	C575.221741,262.594238 575.022583,265.809052 575.568054,268.892120 
	C577.445801,279.505005 580.551392,282.001282 591.171082,282.001465 
	C592.670227,282.001495 594.169434,282.002075 595.668579,282.001373 
	C603.892639,281.997650 607.389099,279.778992 608.890747,271.658936 
	C610.026978,265.514771 609.905090,259.099152 609.957642,252.801147 
	C610.084106,237.644211 610.123291,222.483612 609.931213,207.327881 
	C609.780334,195.418488 605.217957,190.998657 593.782410,190.998474 
	C592.449829,190.998459 591.117249,190.998184 589.784668,190.998520 
	C581.254150,191.000717 577.849304,193.643021 576.007568,202.081436 
	C575.410034,204.819244 575.133606,207.678146 575.119263,210.483749 
	C575.037598,226.474350 575.079590,242.465561 575.079529,259.439819 
z"/>
<path fill="#38206A" opacity="1.000000" stroke="none" 
	d="
M11.794392,232.999939 
	C11.794374,213.860245 11.794374,195.220551 11.794374,176.291428 
	C36.306313,176.291428 60.537983,176.291428 85.017212,176.291428 
	C85.017212,181.013153 85.017212,185.620865 85.017212,190.804794 
	C68.590179,190.804794 52.054283,190.804794 35.274364,190.804794 
	C35.274364,203.771027 35.274364,216.164566 35.274364,228.984283 
	C47.374077,228.984283 59.293022,228.984283 71.474258,228.984283 
	C71.474258,234.000107 71.474258,238.599792 71.474258,243.823334 
	C59.512688,243.823334 47.480522,243.823334 35.242859,243.823334 
	C35.242859,256.714874 35.242859,268.990295 35.242859,281.846863 
	C51.703632,281.846863 68.248306,281.846863 85.023926,281.846863 
	C85.023926,287.026154 85.023926,291.635712 85.023926,296.623657 
	C60.897583,296.623657 36.681847,296.623657 11.794410,296.623657 
	C11.794410,275.657593 11.794410,254.578781 11.794392,232.999939 
z"/>
<path fill="#38206A" opacity="1.000000" stroke="none" 
	d="
M555.794434,412.999939 
	C555.794373,399.526001 555.794373,386.552063 555.794373,373.290375 
	C580.308960,373.290375 604.540649,373.290375 629.018555,373.290375 
	C629.018555,378.015778 629.018555,382.623840 629.018555,387.807678 
	C612.588989,387.807678 596.052490,387.807678 579.273132,387.807678 
	C579.273132,400.773499 579.273132,413.167053 579.273132,425.986816 
	C591.375793,425.986816 603.295105,425.986816 615.475342,425.986816 
	C615.475342,431.004669 615.475342,435.604401 615.475342,440.825867 
	C603.510437,440.825867 591.478149,440.825867 579.241577,440.825867 
	C579.241577,453.717346 579.241577,465.992737 579.241577,478.849091 
	C595.706055,478.849091 612.250916,478.849091 629.025269,478.849091 
	C629.025269,484.029205 629.025269,488.638672 629.025269,493.625336 
	C604.896301,493.625336 580.679871,493.625336 555.794434,493.625336 
	C555.794434,466.989197 555.794434,440.244598 555.794434,412.999939 
z"/>
<path fill="#39216B" opacity="1.000000" stroke="none" 
	d="
M65.996002,388.001587 
	C58.334530,388.001617 51.165550,388.186981 44.011589,387.939026 
	C38.924370,387.762726 35.740337,390.059387 33.975361,394.511963 
	C31.098244,401.770172 31.062992,409.132843 33.927738,416.405548 
	C35.681381,420.857544 38.844822,423.244537 43.927277,423.049713 
	C49.748703,422.826569 55.585785,423.048248 61.415146,422.988007 
	C72.378609,422.874695 80.079460,428.090820 83.801590,438.106140 
	C89.267609,452.813843 88.520599,467.550201 81.355270,481.625854 
	C77.082809,490.018738 70.311531,494.352692 60.414906,494.103119 
	C45.127800,493.717651 29.823818,494.001556 14.237715,494.001556 
	C14.237715,488.981750 14.237715,484.255096 14.237715,478.998413 
	C26.052752,478.998413 37.823746,478.998749 49.594742,478.998260 
	C59.140202,478.997894 63.038116,475.733215 64.766449,466.288757 
	C64.826294,465.961731 64.868797,465.630157 64.896957,465.298828 
	C66.495995,446.487030 62.730389,441.193848 44.438889,442.017181 
	C42.942780,442.084534 41.441010,442.026154 39.941868,442.026062 
	C21.912052,442.025055 13.676828,435.391510 10.587674,417.605225 
	C8.640259,406.392578 9.585710,395.326721 15.057257,385.070526 
	C19.306362,377.105804 25.683315,372.741211 35.168076,372.920746 
	C50.446644,373.209991 65.734695,372.998444 81.202065,372.998444 
	C81.202065,378.188599 81.202065,382.948792 81.202065,388.001556 
	C76.126053,388.001556 71.310486,388.001556 65.996002,388.001587 
z"/>
<path fill="#39216B" opacity="1.000000" stroke="none" 
	d="
M316.971130,478.998413 
	C318.797913,478.998413 320.130524,478.998474 321.463104,478.998383 
	C331.113647,478.997711 335.210632,475.879547 336.632355,466.401428 
	C337.315247,461.848969 337.240082,457.065582 336.715179,452.477509 
	C335.985474,446.100006 331.805511,442.736694 324.558838,442.191772 
	C320.250305,441.867798 315.902740,442.034729 311.572662,442.031189 
	C293.932373,442.016724 285.695312,435.322662 282.615479,417.731659 
	C280.684021,406.699646 281.549988,395.806396 286.768616,385.627808 
	C291.081299,377.216095 297.630798,372.691376 307.539520,372.910645 
	C322.670898,373.245483 337.815155,372.998444 353.208405,372.998444 
	C353.208405,378.074860 353.208405,382.834717 353.208405,388.001617 
	C340.882416,388.001617 328.758392,387.992249 316.634399,388.005463 
	C310.342651,388.012329 306.615479,389.842407 305.629425,395.795349 
	C304.574341,402.164886 304.604309,408.984772 305.671448,415.355072 
	C306.636505,421.115906 310.367462,422.965759 316.300629,422.992554 
	C321.964020,423.018127 327.628510,423.062897 333.290955,422.984802 
	C344.248932,422.833679 352.014923,427.984741 355.757660,437.990997 
	C361.319977,452.861725 360.548950,467.758728 353.171051,481.953308 
	C348.918274,490.135376 342.212830,494.331635 332.537506,494.099365 
	C317.238525,493.732117 301.924286,494.001556 286.282043,494.001556 
	C286.282043,489.066650 286.282043,484.339172 286.282043,478.998413 
	C296.284821,478.998413 306.380859,478.998413 316.971130,478.998413 
z"/>
<path fill="#39216B" opacity="1.000000" stroke="none" 
	d="
M865.998596,494.001556 
	C853.860107,494.001556 842.221130,494.001556 830.265137,494.001556 
	C830.265137,489.034149 830.265137,484.307190 830.265137,478.998413 
	C841.656372,478.998413 853.088074,478.998444 864.519775,478.998383 
	C875.958923,478.998322 880.143494,475.041809 881.037415,463.380890 
	C882.344055,446.337433 878.404907,442.028717 861.514465,442.026062 
	C858.349609,442.025543 855.184326,442.057922 852.019958,442.018677 
	C840.327759,441.873596 832.404785,436.515228 828.578064,425.379303 
	C824.133972,412.447021 824.572632,399.450897 830.137939,386.922852 
	C834.281494,377.595245 841.268494,372.578583 852.093018,372.890381 
	C867.044067,373.321106 882.016724,372.998444 897.220825,372.998444 
	C897.220825,378.120697 897.220825,382.880463 897.220825,388.001617 
	C884.848022,388.001617 872.715881,387.991638 860.583740,388.005707 
	C854.331482,388.012970 851.284119,389.965393 849.415649,395.816681 
	C847.232788,402.652527 847.148010,409.577972 849.889893,416.340088 
	C851.683472,420.763580 854.755066,423.236053 859.852356,423.047699 
	C865.674377,422.832611 871.511230,423.057709 877.340271,422.985840 
	C888.300354,422.850739 896.031128,428.029663 899.776733,438.035889 
	C905.278687,452.734314 904.527039,467.479156 897.393677,481.562042 
	C893.146362,489.947296 886.394592,494.717438 876.490112,494.037537 
	C873.174255,493.809937 869.829651,494.001556 865.998596,494.001556 
z"/>
<path fill="#38206A" opacity="1.000000" stroke="none" 
	d="
M468.115845,268.987915 
	C468.115845,273.453430 468.115845,277.421051 468.115845,281.850525 
	C476.497894,281.850525 484.571838,281.850525 492.949615,281.850525 
	C492.949615,287.025208 492.949615,291.744598 492.949615,296.733368 
	C468.693085,296.733368 444.462189,296.733368 419.949829,296.733368 
	C419.949829,291.914154 419.949829,287.196838 419.949829,282.105103 
	C428.172516,282.105103 436.271454,282.105103 444.671387,282.105103 
	C444.671387,251.690918 444.671387,221.646408 444.671387,191.053375 
	C436.489471,191.053375 428.268097,191.053375 419.863647,191.053375 
	C419.863647,185.889786 419.863647,181.269852 419.863647,176.324768 
	C444.082855,176.324768 468.314575,176.324768 492.905334,176.324768 
	C492.905334,180.954773 492.905334,185.673508 492.905334,190.836090 
	C484.938538,190.836090 476.846405,190.836090 468.115845,190.836090 
	C468.115845,217.007355 468.115845,242.748718 468.115845,268.987915 
z"/>
<path fill="#3A236C" opacity="1.000000" stroke="none" 
	d="
M200.077469,380.033447 
	C200.892639,377.463928 201.609528,375.290955 202.322754,373.129089 
	C210.377777,373.129089 218.183975,373.129089 226.602753,373.129089 
	C224.194763,379.264618 221.933533,385.094421 219.621689,390.904053 
	C212.311707,409.273895 204.887848,427.599487 197.748993,446.035492 
	C196.468491,449.342346 195.831131,453.083496 195.762497,456.640808 
	C195.525436,468.925537 195.671204,481.217651 195.671204,493.753052 
	C187.811081,493.753052 180.414352,493.753052 172.622955,493.753052 
	C172.622955,481.415985 172.790848,469.275024 172.525696,457.143555 
	C172.440704,453.254883 171.781418,449.175659 170.411728,445.551361 
	C161.895447,423.016541 153.098953,400.587646 144.409210,378.118256 
	C143.824432,376.606171 143.352600,375.050385 142.651337,372.996918 
	C150.437454,372.996918 157.728149,372.848541 164.999985,373.151947 
	C166.131088,373.199127 167.756836,375.131836 168.172562,376.492432 
	C173.222046,393.018372 178.086548,409.600891 183.002502,426.167633 
	C183.426834,427.597626 183.875366,429.020477 184.766922,431.928101 
	C190.088623,413.912567 195.033905,397.171295 200.077469,380.033447 
z"/>
<path fill="#39216B" opacity="1.000000" stroke="none" 
	d="
M287.829285,280.989410 
	C286.786774,275.576050 285.135101,270.549286 285.053284,265.497070 
	C284.740692,246.190109 284.442657,226.855804 285.195343,207.572937 
	C285.470154,200.533279 287.817993,193.206482 290.797516,186.737213 
	C294.220398,179.305435 301.025909,175.842468 309.567719,175.946579 
	C324.861694,176.132996 340.159515,175.999100 355.786499,175.999100 
	C355.786499,180.959793 355.786499,185.682327 355.786499,191.000931 
	C344.929321,191.000931 334.001709,191.000854 323.074097,191.000961 
	C312.056122,191.001083 307.254425,195.249619 307.090973,206.422531 
	C306.798798,226.395798 306.908630,246.377213 307.096985,266.352875 
	C307.125824,269.410583 308.138184,272.589508 309.289276,275.475647 
	C311.028778,279.837036 314.222504,282.165649 319.330383,282.070953 
	C331.437927,281.846466 343.552490,281.998779 355.888855,281.998779 
	C355.888855,287.025513 355.888855,291.635590 355.888855,296.757324 
	C354.608124,296.833069 353.189148,296.987823 351.769958,296.989838 
	C338.617737,297.008514 325.446564,296.562408 312.318756,297.128815 
	C300.102295,297.655914 292.400818,292.287933 287.829285,280.989410 
z"/>
<path fill="#38206A" opacity="1.000000" stroke="none" 
	d="
M445.842712,418.999939 
	C445.842712,408.535431 445.842712,398.570892 445.842712,388.137848 
	C437.098114,388.137848 428.687866,388.137848 419.978027,388.137848 
	C419.978027,382.955505 419.978027,378.235992 419.978027,373.257019 
	C444.281464,373.257019 468.532898,373.257019 493.099060,373.257019 
	C493.099060,378.046204 493.099060,382.766754 493.099060,387.848877 
	C485.116882,387.848877 477.164459,387.848877 468.713989,387.848877 
	C468.713989,423.247864 468.713989,458.296387 468.713989,493.670929 
	C460.979370,493.670929 453.737518,493.670929 445.842743,493.670929 
	C445.842743,468.987549 445.842743,444.243744 445.842712,418.999939 
z"/>
<path fill="#3CBBFB" opacity="1.000000" stroke="none" 
	d="
M770.599243,141.411194 
	C757.117493,125.976875 743.910583,110.771645 730.551636,95.701279 
	C728.131958,92.971642 727.775574,90.608086 729.185181,87.228142 
	C732.958069,78.181786 736.207703,68.916924 739.999939,59.879295 
	C740.661072,58.303635 742.848389,56.529480 744.505920,56.334530 
	C778.350159,52.353748 812.221619,48.605980 846.083252,44.771835 
	C855.821777,43.669151 865.542664,42.410343 875.280457,41.300903 
	C877.058899,41.098289 878.880249,41.272007 881.332703,41.272007 
	C880.895813,42.960484 880.673645,44.365482 880.173889,45.663601 
	C876.470825,55.282715 872.525635,64.814049 869.070007,74.520195 
	C867.812866,78.050980 865.814575,79.516464 862.306580,79.900002 
	C844.630676,81.832504 826.967468,83.880554 809.296448,85.858177 
	C799.216797,86.986206 789.128479,88.037300 779.050903,89.182747 
	C777.983521,89.304070 776.961914,89.828049 775.148865,90.414261 
	C779.501099,95.509460 783.412903,100.172142 787.413330,104.757568 
	C802.075439,121.563690 816.680298,138.421448 831.517273,155.072144 
	C834.659241,158.598160 835.518127,161.584686 833.579590,166.113724 
	C829.158142,176.443527 825.325195,187.025223 820.783997,198.711945 
	C803.614380,179.114944 787.218201,160.400726 770.599243,141.411194 
z"/>
<path fill="#FDFCFD" opacity="1.000000" stroke="none" 
	d="
M988.939331,137.053619 
	C994.939392,144.001770 1000.568726,150.810791 1006.550110,157.295013 
	C1008.949646,159.896301 1009.180969,162.041550 1007.847778,165.212036 
	C1004.305908,173.634674 1000.948792,182.147217 997.900024,190.759171 
	C996.622742,194.367050 994.767029,195.929932 990.895752,196.337143 
	C971.867371,198.338699 952.869324,200.629425 933.862732,202.836990 
	C908.577515,205.773804 883.294556,208.730621 858.008850,211.663361 
	C857.221558,211.754669 856.414307,211.674911 854.958008,211.674911 
	C858.638916,202.123093 862.101990,193.002243 865.666443,183.921173 
	C869.953857,172.998001 870.019958,173.277557 882.166626,171.959167 
	C908.136963,169.140381 934.074646,166.020676 960.023926,163.008453 
	C960.461670,162.957657 960.876282,162.707779 961.872314,162.340225 
	C960.579895,160.725067 959.540710,159.324387 958.398193,158.013809 
	C940.343140,137.301956 922.329163,116.553688 904.141663,95.958694 
	C901.827881,93.338615 901.451416,91.206169 902.739014,88.059860 
	C906.893738,77.907478 910.784851,67.647316 914.797852,57.436672 
	C915.143799,56.556351 915.638855,55.734650 916.426208,54.164928 
	C940.771851,81.991714 964.740845,109.387924 988.939331,137.053619 
z"/>
<path fill="#FEFEFE" opacity="1.000000" stroke="none" 
	d="
M575.079590,258.948181 
	C575.079590,242.465561 575.037598,226.474350 575.119263,210.483749 
	C575.133606,207.678146 575.410034,204.819244 576.007568,202.081436 
	C577.849304,193.643021 581.254150,191.000717 589.784668,190.998520 
	C591.117249,190.998184 592.449829,190.998459 593.782410,190.998474 
	C605.217957,190.998657 609.780334,195.418488 609.931213,207.327881 
	C610.123291,222.483612 610.084106,237.644211 609.957642,252.801147 
	C609.905090,259.099152 610.026978,265.514771 608.890747,271.658936 
	C607.389099,279.778992 603.892639,281.997650 595.668579,282.001373 
	C594.169434,282.002075 592.670227,282.001495 591.171082,282.001465 
	C580.551392,282.001282 577.445801,279.505005 575.568054,268.892120 
	C575.022583,265.809052 575.221741,262.594238 575.079590,258.948181 
z"/>
</svg>